<svg width="22" height="22" viewBox="0 0 22 22" fill="none" xmlns="http://www.w3.org/2000/svg">
<path d="M6.5835 17.5C5.39183 17.5 4.42766 18.475 4.42766 19.6667C4.42766 20.8584 5.39183 21.8334 6.5835 21.8334C7.77516 21.8334 8.75016 20.8584 8.75016 19.6667C8.75016 18.475 7.77516 17.5 6.5835 17.5ZM0.0834961 1.25002C0.0834961 1.84585 0.570996 2.33335 1.16683 2.33335H2.25016L6.15016 10.5559L4.68766 13.1992C3.89683 14.6509 4.93683 16.4167 6.5835 16.4167H18.5002C19.096 16.4167 19.5835 15.9292 19.5835 15.3334C19.5835 14.7375 19.096 14.25 18.5002 14.25H6.5835L7.77516 12.0834H15.846C16.6585 12.0834 17.3735 11.6392 17.7418 10.9675L21.6202 3.93669C22.021 3.22169 21.501 2.33335 20.6777 2.33335H4.64433L3.9185 0.784187C3.74516 0.40502 3.35516 0.166687 2.9435 0.166687H1.16683C0.570996 0.166687 0.0834961 0.654187 0.0834961 1.25002ZM17.4168 17.5C16.2252 17.5 15.261 18.475 15.261 19.6667C15.261 20.8584 16.2252 21.8334 17.4168 21.8334C18.6085 21.8334 19.5835 20.8584 19.5835 19.6667C19.5835 18.475 18.6085 17.5 17.4168 17.5Z" fill="#49214D"/>
</svg>
