<svg width="13" height="8" viewBox="0 0 13 8" fill="none" xmlns="http://www.w3.org/2000/svg">
<path d="M6.57932 7.08333C6.42578 7.08421 6.27357 7.05478 6.13143 6.99673C5.98929 6.93867 5.86 6.85312 5.75099 6.74499L1.08432 2.07833C0.97554 1.96955 0.889252 1.84041 0.830382 1.69828C0.771512 1.55616 0.741211 1.40383 0.741211 1.24999C0.741211 1.09616 0.771512 0.943827 0.830382 0.801701C0.889252 0.659575 0.97554 0.530437 1.08432 0.421659C1.1931 0.31288 1.32224 0.226592 1.46436 0.167722C1.60649 0.108852 1.75882 0.0785522 1.91265 0.0785522C2.06649 0.0785522 2.21882 0.108852 2.36094 0.167722C2.50307 0.226592 2.63221 0.31288 2.74099 0.421659L6.57932 4.28333L10.4293 0.573326C10.5366 0.453987 10.6674 0.358077 10.8135 0.291593C10.9596 0.22511 11.1178 0.189483 11.2783 0.18694C11.4388 0.184398 11.5981 0.214994 11.7462 0.276817C11.8943 0.33864 12.0281 0.430359 12.1391 0.546238C12.2502 0.662116 12.3361 0.799661 12.3916 0.950271C12.447 1.10088 12.4708 1.26132 12.4615 1.42154C12.4521 1.58177 12.4098 1.73834 12.3371 1.88146C12.2645 2.02458 12.1631 2.15117 12.0393 2.25333L7.37266 6.75666C7.1593 6.96236 6.87566 7.07915 6.57932 7.08333Z" fill="#49214D"/>
</svg>
