<svg width="18" height="22" viewBox="0 0 18 22" fill="none" xmlns="http://www.w3.org/2000/svg">
<path d="M8.99993 21.8333C10.1916 21.8333 11.1666 20.8583 11.1666 19.6666H6.83327C6.83327 20.8583 7.79743 21.8333 8.99993 21.8333ZM15.4999 15.3333V9.91665C15.4999 6.59081 13.7233 3.80665 10.6249 3.06998V2.33331C10.6249 1.43415 9.8991 0.708313 8.99993 0.708313C8.10077 0.708313 7.37493 1.43415 7.37493 2.33331V3.06998C4.26577 3.80665 2.49993 6.57998 2.49993 9.91665V15.3333L1.10243 16.7308C0.419934 17.4133 0.8966 18.5833 1.86077 18.5833H16.1283C17.0924 18.5833 17.5799 17.4133 16.8974 16.7308L15.4999 15.3333Z" fill="#49214D"/>
</svg>
