<svg width="36" height="36" viewBox="0 0 36 36" fill="none" xmlns="http://www.w3.org/2000/svg">
<path d="M14.4439 8.63827L24.9536 6.5495C25.4325 6.45432 25.8789 6.82072 25.8789 7.30898V23.4118C25.8789 24.7826 24.9202 25.9667 23.5794 26.252L22.6509 26.4495C21.0335 26.7937 19.51 25.5602 19.51 23.9065C19.51 22.7417 20.2951 21.7231 21.4216 21.4267L24.0532 20.7342C24.4103 20.6402 24.6593 20.3172 24.6593 19.9479V12.4716C24.6593 12.1279 24.3435 11.871 24.007 11.9409L15.2491 13.7612C14.9796 13.8172 14.7865 14.0546 14.7865 14.3298V25.4944C14.7865 26.9939 13.7374 28.2889 12.2705 28.6001L11.6338 28.7351C9.96724 29.0886 8.39823 27.8175 8.39823 26.1139C8.39823 25.0281 9.12899 24.0784 10.1785 23.8001L12.933 23.0697C13.2725 22.9797 13.5089 22.6725 13.5089 22.3213V9.77749C13.5089 9.2233 13.9004 8.7463 14.4439 8.63827Z" fill="#49214D"/>
<path fill-rule="evenodd" clip-rule="evenodd" d="M35.5 18C35.5 27.665 27.665 35.5 18 35.5C8.33502 35.5 0.5 27.665 0.5 18C0.5 8.33502 8.33502 0.5 18 0.5C27.665 0.5 35.5 8.33502 35.5 18ZM33.9513 18.0194C33.9513 26.8397 26.8097 33.99 18 33.99C9.19032 33.99 2.04867 26.8397 2.04867 18.0194C2.04867 9.19899 9.19032 2.04867 18 2.04867C26.8097 2.04867 33.9513 9.19899 33.9513 18.0194Z" fill="#49214D"/>
</svg>
