<svg xmlns="http://www.w3.org/2000/svg" width="66.667" height="53.333" viewBox="0 0 66.667 53.333">
  <g id="campaign-icon" transform="translate(-6.667 -14.197)">
    <path id="Path_2" data-name="Path 2" d="M60,37.531V44.2H73.333V37.531Z" fill="#6759ff"/>
    <path id="Path_3" data-name="Path 3" d="M53.333,59.564c3.2,2.367,7.367,5.5,10.667,7.967,1.333-1.767,2.667-3.567,4-5.333-3.3-2.467-7.467-5.6-10.667-8C56,56,54.667,57.8,53.333,59.564Z" fill="#6759ff"/>
    <path id="Path_4" data-name="Path 4" d="M68,19.531c-1.333-1.767-2.667-3.567-4-5.333-3.3,2.467-7.467,5.6-10.667,8,1.333,1.767,2.667,3.567,4,5.333C60.534,25.131,64.7,22.031,68,19.531Z" fill="#6759ff"/>
    <path id="Path_5" data-name="Path 5" d="M13.333,30.864a6.686,6.686,0,0,0-6.667,6.667V44.2a6.686,6.686,0,0,0,6.667,6.667h3.333V64.2h6.667V50.864h3.333l16.667,10v-40l-16.667,10Zm16.767,5.7,6.567-3.933V49.1L30.1,45.164,28.5,44.2H13.333V37.531H28.5Z" fill="#6759ff"/>
    <path id="Path_6" data-name="Path 6" d="M51.667,40.864a14.933,14.933,0,0,0-5-11.167V52A14.807,14.807,0,0,0,51.667,40.864Z" fill="#6759ff"/>
    <path id="Path_7" data-name="Path 7" d="M30.1,36.564l6.567-3.933V49.1L30.1,45.164,28.5,44.2H13.333V37.53H28.5Z" fill="#6759ff" opacity="0.3"/>
  </g>
</svg>
