<svg xmlns="http://www.w3.org/2000/svg" width="44" height="44" viewBox="0 0 44 44">
  <g id="cart-pink" transform="translate(-2529 5322)">
    <rect id="Rectangle_6476" data-name="Rectangle 6476" width="44" height="44" rx="22" transform="translate(2529 -5322)" fill="#fff"/>
    <path id="cart-pink-2" data-name="cart-pink" d="M6.417,15.5A1.833,1.833,0,1,0,8.25,17.333,1.831,1.831,0,0,0,6.417,15.5ZM.917,1.75a.919.919,0,0,0,.917.917H2.75l3.3,6.958L4.813,11.861a1.837,1.837,0,0,0,1.6,2.722H16.5a.917.917,0,0,0,0-1.833H6.417l1.008-1.833h6.829a1.825,1.825,0,0,0,1.6-.944L19.14,4.023a.913.913,0,0,0-.8-1.357H4.776L4.162,1.356A.91.91,0,0,0,3.337.833h-1.5A.919.919,0,0,0,.917,1.75ZM15.583,15.5a1.833,1.833,0,1,0,1.833,1.833A1.831,1.831,0,0,0,15.583,15.5Z" transform="translate(2541.083 -5310.833)" fill="#ca5cd4"/>
  </g>
</svg>
