<svg id="cart-rounded-menu-icon" xmlns="http://www.w3.org/2000/svg" width="44" height="44" viewBox="0 0 44 44">
  <rect id="Rectangle_12" data-name="Rectangle 12" width="44" height="44" rx="22" fill="#fff"/>
  <path id="Path_1" data-name="Path 1" d="M17.417,27.5a1.833,1.833,0,1,0,1.833,1.833A1.831,1.831,0,0,0,17.417,27.5Zm-5.5-13.75a.919.919,0,0,0,.917.917h.917l3.3,6.958-1.238,2.237a1.837,1.837,0,0,0,1.6,2.722H27.5a.917.917,0,0,0,0-1.833H17.417l1.008-1.833h6.829a1.825,1.825,0,0,0,1.6-.944l3.282-5.949a.913.913,0,0,0-.8-1.357H15.776l-.614-1.311a.91.91,0,0,0-.825-.523h-1.5A.919.919,0,0,0,11.917,13.75ZM26.583,27.5a1.833,1.833,0,1,0,1.833,1.833A1.831,1.831,0,0,0,26.583,27.5Z" fill="#6759ff"/>
</svg>
