<svg width="20" height="20" viewBox="0 0 20 20" fill="none" xmlns="http://www.w3.org/2000/svg">
<path d="M6.41675 15.5001C5.40841 15.5001 4.59258 16.3251 4.59258 17.3334C4.59258 18.3418 5.40841 19.1668 6.41675 19.1668C7.42508 19.1668 8.25008 18.3418 8.25008 17.3334C8.25008 16.3251 7.42508 15.5001 6.41675 15.5001ZM0.916748 1.7501C0.916748 2.25427 1.32925 2.66677 1.83341 2.66677H2.75008L6.05008 9.62427L4.81258 11.8609C4.14341 13.0893 5.02341 14.5834 6.41675 14.5834H16.5001C17.0042 14.5834 17.4167 14.1709 17.4167 13.6668C17.4167 13.1626 17.0042 12.7501 16.5001 12.7501H6.41675L7.42508 10.9168H14.2542C14.9417 10.9168 15.5467 10.5409 15.8584 9.9726L19.1401 4.02344C19.4792 3.41844 19.0392 2.66677 18.3426 2.66677H4.77591L4.16175 1.35594C4.01508 1.0351 3.68508 0.833435 3.33675 0.833435H1.83341C1.32925 0.833435 0.916748 1.24594 0.916748 1.7501ZM15.5834 15.5001C14.5751 15.5001 13.7592 16.3251 13.7592 17.3334C13.7592 18.3418 14.5751 19.1668 15.5834 19.1668C16.5917 19.1668 17.4167 18.3418 17.4167 17.3334C17.4167 16.3251 16.5917 15.5001 15.5834 15.5001Z" fill="url(#paint0_linear_231:966)"/>
<defs>
<linearGradient id="paint0_linear_231:966" x1="0.916748" y1="0.833435" x2="24.4181" y2="9.82143" gradientUnits="userSpaceOnUse">
<stop stop-color="#CA5CD4"/>
<stop offset="1" stop-color="#612966"/>
</linearGradient>
</defs>
</svg>
