<svg width="68" height="68" viewBox="0 0 68 68" fill="none" xmlns="http://www.w3.org/2000/svg">
<path opacity="0.3" d="M33.9997 7.19775C19.2997 7.19775 7.33301 19.1644 7.33301 33.8644C7.33301 48.5644 19.2997 60.5311 33.9997 60.5311C48.6997 60.5311 60.6663 48.5644 60.6663 33.8644C60.6663 19.1644 48.6997 7.19775 33.9997 7.19775ZM36.933 53.0644V57.1978H31.0997V52.8977C28.633 52.2977 23.133 50.3311 21.033 43.0311L26.533 40.7977C26.733 41.5311 28.4663 47.7644 34.533 47.7644C37.633 47.7644 41.133 46.1644 41.133 42.3978C41.133 39.1978 38.7997 37.5311 33.533 35.6311C29.8663 34.3311 22.3663 32.1978 22.3663 24.5978C22.3663 24.2644 22.3997 16.5978 31.0997 14.7311V10.5311H36.933V14.6644C43.0663 15.7311 45.2997 20.6311 45.7997 22.0978L40.533 24.3311C40.1663 23.1644 38.5663 19.8644 34.1997 19.8644C31.8663 19.8644 28.1663 21.0978 28.1663 24.4978C28.1663 27.6644 31.033 28.8644 36.9663 30.8311C44.9663 33.5978 46.9997 37.6644 46.9997 42.3311C46.9997 51.0978 38.6663 52.7644 36.933 53.0644Z" fill="url(#paint0_linear_4:3419)"/>
<path d="M36.9657 30.8643C31.0324 28.8977 28.1657 27.6643 28.1657 24.531C28.1657 21.131 31.8657 19.8977 34.199 19.8977C38.5657 19.8977 40.1657 23.1977 40.5324 24.3643L45.799 22.131C45.299 20.6643 43.0657 15.7643 36.9324 14.6977V10.531H31.099V14.731C22.4324 16.5977 22.3657 24.231 22.3657 24.5977C22.3657 32.1643 29.8657 34.2977 33.5324 35.631C38.799 37.4977 41.1324 39.1977 41.1324 42.3977C41.1324 46.1643 37.6324 47.7643 34.5324 47.7643C28.4657 47.7643 26.7324 41.531 26.5324 40.7977L20.999 43.031C23.099 50.331 28.599 52.2977 31.0657 52.8977V57.1977H36.899V53.0643C38.6324 52.7643 46.9657 51.0977 46.9657 42.331C46.999 37.6977 44.9657 33.631 36.9657 30.8643Z" fill="url(#paint1_linear_4:3419)"/>
<path d="M33.9998 0.531006C15.5998 0.531006 0.666504 15.4643 0.666504 33.8643C0.666504 52.2644 15.5998 67.1977 33.9998 67.1977C52.3998 67.1977 67.3332 52.2644 67.3332 33.8643C67.3332 15.4643 52.3998 0.531006 33.9998 0.531006ZM33.9998 60.531C19.2998 60.531 7.33317 48.5643 7.33317 33.8643C7.33317 19.1643 19.2998 7.19767 33.9998 7.19767C48.6998 7.19767 60.6665 19.1643 60.6665 33.8643C60.6665 48.5643 48.6998 60.531 33.9998 60.531Z" fill="url(#paint2_linear_4:3419)"/>
<defs>
<linearGradient id="paint0_linear_4:3419" x1="7.33301" y1="7.19775" x2="75.6818" y2="33.3277" gradientUnits="userSpaceOnUse">
<stop stop-color="#6759FF"/>
<stop offset="1" stop-color="#2E2E99"/>
</linearGradient>
<linearGradient id="paint1_linear_4:3419" x1="20.999" y1="10.531" x2="57.4893" y2="18.2935" gradientUnits="userSpaceOnUse">
<stop stop-color="#6759FF"/>
<stop offset="1" stop-color="#2E2E99"/>
</linearGradient>
<linearGradient id="paint2_linear_4:3419" x1="0.666504" y1="0.531006" x2="86.1025" y2="33.1935" gradientUnits="userSpaceOnUse">
<stop stop-color="#6759FF"/>
<stop offset="1" stop-color="#2E2E99"/>
</linearGradient>
</defs>
</svg>
