<svg xmlns="http://www.w3.org/2000/svg" width="66.667" height="66.667" viewBox="0 0 66.667 66.667">
  <g id="dollars-icon" transform="translate(-0.667 -0.531)">
    <path id="Path_8" data-name="Path 8" d="M34,7.2A26.667,26.667,0,1,0,60.666,33.864,26.7,26.7,0,0,0,34,7.2Zm2.933,45.867V57.2H31.1V52.9a13.456,13.456,0,0,1-10.067-9.867l5.5-2.233c.2.733,1.933,6.967,8,6.967,3.1,0,6.6-1.6,6.6-5.367,0-3.2-2.333-4.867-7.6-6.767C29.866,34.331,22.366,32.2,22.366,24.6c0-.333.033-8,8.733-9.867v-4.2h5.833v4.133A11.418,11.418,0,0,1,45.8,22.1l-5.267,2.233A6.441,6.441,0,0,0,34.2,19.864c-2.333,0-6.033,1.233-6.033,4.633,0,3.167,2.867,4.367,8.8,6.333C44.966,33.6,47,37.664,47,42.331,47,51.1,38.666,52.764,36.933,53.064Z" fill="#6759ff" opacity="0.3"/>
    <path id="Path_9" data-name="Path 9" d="M36.966,30.864c-5.933-1.967-8.8-3.2-8.8-6.333,0-3.4,3.7-4.633,6.033-4.633a6.441,6.441,0,0,1,6.333,4.467L45.8,22.131A11.418,11.418,0,0,0,36.932,14.7V10.531H31.1v4.2c-8.667,1.867-8.733,9.5-8.733,9.867,0,7.567,7.5,9.7,11.167,11.033,5.267,1.867,7.6,3.567,7.6,6.767,0,3.767-3.5,5.367-6.6,5.367-6.067,0-7.8-6.233-8-6.967L21,43.031A13.456,13.456,0,0,0,31.066,52.9v4.3H36.9V53.064c1.733-.3,10.067-1.967,10.067-10.733C47,37.7,44.966,33.631,36.966,30.864Z" fill="#6759ff"/>
    <path id="Path_10" data-name="Path 10" d="M34,.531A33.333,33.333,0,1,0,67.333,33.864,33.345,33.345,0,0,0,34,.531Zm0,60A26.667,26.667,0,1,1,60.667,33.864,26.7,26.7,0,0,1,34,60.531Z" fill="#6759ff"/>
  </g>
</svg>
