<svg width="180" height="36" viewBox="0 0 180 36" fill="none" xmlns="http://www.w3.org/2000/svg">
<g clip-path="url(#clip0_22:1708)">
<path fill-rule="evenodd" clip-rule="evenodd" d="M0.0200721 7.24486C0.309205 3.19539 3.68599 0 7.80911 0H42.9501C47.0732 0 50.4499 3.19539 50.7391 7.24486H0.0200721ZM0 14.4447H50.7592V28.1903C50.7592 32.5032 47.2629 35.9995 42.9501 35.9995H7.80911C3.49625 35.9995 0 32.5032 0 28.1903V14.4447ZM8.27992 20.6997C6.78874 20.6997 5.57992 21.9085 5.57992 23.3997V27.4496C5.57992 28.9407 6.78874 30.1496 8.27992 30.1496C9.77099 30.1496 10.9798 28.9407 10.9798 27.4496V23.3997C10.9798 21.9085 9.77099 20.6997 8.27992 20.6997ZM14.1298 20.0247C14.1298 18.5335 15.3386 17.3247 16.8297 17.3247C18.3209 17.3247 19.5297 18.5335 19.5297 20.0247V30.8245C19.5297 32.3157 18.3209 33.5245 16.8297 33.5245C15.3386 33.5245 14.1298 32.3157 14.1298 30.8245V20.0247ZM25.3796 20.6997C23.8884 20.6997 22.6797 21.9085 22.6797 23.3997V27.4496C22.6797 28.9407 23.8884 30.1496 25.3796 30.1496C26.8707 30.1496 28.0796 28.9407 28.0796 27.4496V23.3997C28.0796 21.9085 26.8707 20.6997 25.3796 20.6997ZM31.2295 20.0247C31.2295 18.5335 32.4383 17.3247 33.9295 17.3247C35.4206 17.3247 36.6294 18.5335 36.6294 20.0247V30.8245C36.6294 32.3157 35.4206 33.5245 33.9295 33.5245C32.4383 33.5245 31.2295 32.3157 31.2295 30.8245V20.0247ZM42.4794 20.6997C40.9882 20.6997 39.7794 21.9085 39.7794 23.3997V27.4496C39.7794 28.9407 40.9882 30.1496 42.4794 30.1496C43.9704 30.1496 45.1793 28.9407 45.1793 27.4496V23.3997C45.1793 21.9085 43.9704 20.6997 42.4794 20.6997Z" fill="#E266ED"/>
</g>
<path d="M72.7493 16.36V11.08H75.5393C77.5793 11.08 78.4493 12.1 78.4493 13.72C78.4493 15.34 77.5793 16.36 75.5393 16.36H72.7493ZM83.6693 13.72C83.6693 9.85 81.0893 6.94 75.9293 6.94H67.6193V28H72.7493V20.44H75.9293C81.2993 20.44 83.6693 17.2 83.6693 13.72ZM85.32 19.6C85.32 24.88 88.59 28.24 92.67 28.24C95.16 28.24 96.93 27.1 97.86 25.63V28H102.99V11.26H97.86V13.63C96.96 12.16 95.19 11.02 92.7 11.02C88.59 11.02 85.32 14.32 85.32 19.6ZM97.86 19.63C97.86 22.3 96.15 23.77 94.2 23.77C92.28 23.77 90.54 22.27 90.54 19.6C90.54 16.93 92.28 15.49 94.2 15.49C96.15 15.49 97.86 16.96 97.86 19.63ZM114.411 21.73L110.541 11.26H104.811L111.621 27.43L107.781 35.95H113.301L123.801 11.26H118.251L114.411 21.73ZM142.036 19.63C142.036 14.32 138.256 11.02 133.336 11.02C128.446 11.02 124.636 14.32 124.636 19.63C124.636 24.94 128.356 28.24 133.276 28.24C138.196 28.24 142.036 24.94 142.036 19.63ZM129.856 19.63C129.856 16.78 131.476 15.46 133.336 15.46C135.136 15.46 136.816 16.78 136.816 19.63C136.816 22.45 135.106 23.8 133.276 23.8C131.416 23.8 129.856 22.45 129.856 19.63ZM144.758 28H149.888V5.8H144.758V28ZM153.606 28H158.736V11.26H153.606V28ZM156.186 9.52C157.986 9.52 159.216 8.29 159.216 6.76C159.216 5.2 157.986 3.97 156.186 3.97C154.356 3.97 153.126 5.2 153.126 6.76C153.126 8.29 154.356 9.52 156.186 9.52ZM169.833 15.13C171.543 15.13 172.983 16.18 172.983 18.01H166.563C166.863 16.15 168.153 15.13 169.833 15.13ZM177.843 22.45H172.383C171.963 23.35 171.153 24.07 169.713 24.07C168.063 24.07 166.713 23.05 166.533 20.86H178.143C178.203 20.35 178.233 19.84 178.233 19.36C178.233 14.26 174.783 11.02 169.893 11.02C164.913 11.02 161.433 14.32 161.433 19.63C161.433 24.94 164.973 28.24 169.893 28.24C174.063 28.24 177.033 25.72 177.843 22.45Z" fill="#E266ED"/>
<defs>
<clipPath id="clip0_22:1708">
<rect width="50.7592" height="36" fill="white"/>
</clipPath>
</defs>
</svg>
