<svg width="320" height="423" viewBox="0 0 320 423" fill="none" xmlns="http://www.w3.org/2000/svg">
<circle cx="160" cy="160" r="95" stroke="#E266ED" stroke-opacity="0.04" stroke-width="10"/>
<circle cx="160" cy="160" r="125" stroke="#E266ED" stroke-opacity="0.2" stroke-width="10"/>
<circle cx="160" cy="160" r="155" stroke="#E266ED" stroke-opacity="0.6" stroke-width="10"/>
<path fill-rule="evenodd" clip-rule="evenodd" d="M97 160C97 156.958 97.3019 153.986 97.8774 151.113H223.023C223.598 153.986 223.9 156.958 223.9 160C223.9 184.853 203.753 205 178.9 205H142C117.147 205 97 184.853 97 160ZM214.988 133.113H105.912C114.116 122.119 127.227 115 142 115H178.9C193.673 115 206.784 122.119 214.988 133.113ZM117.699 166.749C113.971 166.749 110.949 169.771 110.949 173.499V183.624C110.949 187.352 113.971 190.374 117.699 190.374C121.427 190.374 124.449 187.352 124.449 183.624V173.499C124.449 169.771 121.427 166.749 117.699 166.749ZM132.325 165.062C132.325 161.335 135.347 158.312 139.075 158.312C142.803 158.312 145.825 161.335 145.825 165.062V192.062C145.825 195.79 142.803 198.812 139.075 198.812C135.347 198.812 132.325 195.79 132.325 192.062V165.062ZM160.445 166.749C156.717 166.749 153.695 169.771 153.695 173.499V183.624C153.695 187.352 156.717 190.374 160.445 190.374C164.173 190.374 167.195 187.352 167.195 183.624V173.499C167.195 169.771 164.173 166.749 160.445 166.749ZM175.074 165.062C175.074 161.335 178.096 158.312 181.824 158.312C185.552 158.312 188.574 161.335 188.574 165.062V192.062C188.574 195.79 185.552 198.812 181.824 198.812C178.096 198.812 175.074 195.79 175.074 192.062V165.062ZM203.194 166.749C199.467 166.749 196.445 169.771 196.445 173.499V183.624C196.445 187.352 199.467 190.374 203.194 190.374C206.922 190.374 209.944 187.352 209.944 183.624V173.499C209.944 169.771 206.922 166.749 203.194 166.749Z" fill="#E266ED"/>
<path d="M79.125 384.675V409H91.34V405.78H83.115V384.675H79.125ZM113.052 399.34C113.052 393.285 108.712 389.4 103.217 389.4C97.7218 389.4 93.3818 393.285 93.3818 399.34C93.3818 405.395 97.5468 409.315 103.042 409.315C108.572 409.315 113.052 405.395 113.052 399.34ZM97.4418 399.34C97.4418 394.965 100.137 392.865 103.147 392.865C106.122 392.865 108.957 394.965 108.957 399.34C108.957 403.715 106.017 405.85 103.042 405.85C100.032 405.85 97.4418 403.715 97.4418 399.34ZM115.666 399.27C115.666 405.22 119.691 409.315 124.696 409.315C127.916 409.315 130.226 407.775 131.451 406.13V409H135.476V389.715H131.451V392.515C130.261 390.94 128.021 389.4 124.766 389.4C119.691 389.4 115.666 393.32 115.666 399.27ZM131.451 399.34C131.451 403.505 128.616 405.85 125.606 405.85C122.631 405.85 119.761 403.435 119.761 399.27C119.761 395.105 122.631 392.865 125.606 392.865C128.616 392.865 131.451 395.21 131.451 399.34ZM139.387 399.27C139.387 405.22 143.412 409.315 148.487 409.315C151.637 409.315 153.947 407.845 155.172 406.095V409H159.197V383.1H155.172V392.41C153.702 390.59 151.042 389.4 148.522 389.4C143.412 389.4 139.387 393.32 139.387 399.27ZM155.172 399.34C155.172 403.505 152.337 405.85 149.327 405.85C146.352 405.85 143.482 403.435 143.482 399.27C143.482 395.105 146.352 392.865 149.327 392.865C152.337 392.865 155.172 395.21 155.172 399.34ZM164.438 409H168.428V389.715H164.438V409ZM166.468 387.16C167.868 387.16 168.988 386.04 168.988 384.605C168.988 383.17 167.868 382.05 166.468 382.05C165.033 382.05 163.913 383.17 163.913 384.605C163.913 386.04 165.033 387.16 166.468 387.16ZM187.351 409H191.306V397.625C191.306 392.235 187.911 389.4 183.396 389.4C181.086 389.4 178.951 390.345 177.656 391.92V389.715H173.666V409H177.656V398.22C177.656 394.685 179.581 392.865 182.521 392.865C185.426 392.865 187.351 394.685 187.351 398.22V409ZM195.066 399.27C195.066 405.22 199.091 409.315 204.166 409.315C207.316 409.315 209.626 407.74 210.851 406.095V409.315C210.851 413.165 208.541 415.055 205.461 415.055C202.696 415.055 200.561 413.69 199.966 411.695H196.011C196.501 415.965 200.316 418.52 205.461 418.52C211.481 418.52 214.876 414.565 214.876 409.315V389.715H210.851V392.515C209.661 390.87 207.316 389.4 204.166 389.4C199.091 389.4 195.066 393.32 195.066 399.27ZM210.851 399.34C210.851 403.505 208.016 405.85 205.006 405.85C202.031 405.85 199.161 403.435 199.161 399.27C199.161 395.105 202.031 392.865 205.006 392.865C208.016 392.865 210.851 395.21 210.851 399.34ZM224.246 406.69C224.246 405.255 223.126 404.135 221.726 404.135C220.291 404.135 219.171 405.255 219.171 406.69C219.171 408.125 220.291 409.245 221.726 409.245C223.126 409.245 224.246 408.125 224.246 406.69ZM232.689 406.69C232.689 405.255 231.569 404.135 230.169 404.135C228.734 404.135 227.614 405.255 227.614 406.69C227.614 408.125 228.734 409.245 230.169 409.245C231.569 409.245 232.689 408.125 232.689 406.69ZM241.131 406.69C241.131 405.255 240.011 404.135 238.611 404.135C237.176 404.135 236.056 405.255 236.056 406.69C236.056 408.125 237.176 409.245 238.611 409.245C240.011 409.245 241.131 408.125 241.131 406.69Z" fill="#E266ED"/>
</svg>
