<svg width="280" height="383" viewBox="0 0 280 383" fill="none" xmlns="http://www.w3.org/2000/svg">
<path opacity="0.15" d="M280 140C280 217.32 217.32 280 140 280C62.6801 280 0 217.32 0 140C0 62.6801 62.6801 0 140 0C217.32 0 280 62.6801 280 140ZM19.6 140C19.6 206.495 73.5049 260.4 140 260.4C206.495 260.4 260.4 206.495 260.4 140C260.4 73.5049 206.495 19.6 140 19.6C73.5049 19.6 19.6 73.5049 19.6 140Z" fill="#E266ED"/>
<path d="M140 9.8C140 4.38761 144.393 -0.0357142 149.793 0.342801C175.888 2.17224 201.021 11.2849 222.29 26.7376C246.209 44.1156 264.012 68.6196 273.148 96.7376C282.284 124.856 282.284 155.144 273.148 183.262C265.024 208.265 250.047 230.411 230.011 247.229C225.865 250.709 219.711 249.713 216.53 245.334C213.348 240.955 214.349 234.856 218.455 231.329C235.162 216.978 247.663 198.271 254.507 177.206C262.364 153.024 262.364 126.976 254.507 102.794C246.65 78.6128 231.339 57.5394 210.769 42.5944C192.85 29.5752 171.741 21.7891 149.789 19.9985C144.395 19.5585 140 15.2124 140 9.8Z" fill="#E266ED"/>
<path fill-rule="evenodd" clip-rule="evenodd" d="M74.668 140C74.668 136.845 74.981 133.764 75.5778 130.784H205.358C205.955 133.764 206.268 136.845 206.268 140C206.268 165.773 185.375 186.667 159.601 186.667H121.335C95.5613 186.667 74.668 165.773 74.668 140ZM197.026 112.118H83.9098C92.4181 100.716 106.014 93.3335 121.335 93.3335H159.601C174.922 93.3335 188.518 100.716 197.026 112.118ZM96.1358 146.998C92.2698 146.998 89.1358 150.132 89.1358 153.998V164.498C89.1358 168.364 92.2698 171.498 96.1358 171.498C100.002 171.498 103.136 168.364 103.136 164.498V153.998C103.136 150.132 100.002 146.998 96.1358 146.998ZM111.303 145.25C111.303 141.384 114.437 138.25 118.303 138.25C122.169 138.25 125.303 141.384 125.303 145.25V173.25C125.303 177.116 122.169 180.25 118.303 180.25C114.437 180.25 111.303 177.116 111.303 173.25V145.25ZM140.468 146.998C136.602 146.998 133.468 150.132 133.468 153.998V164.498C133.468 168.364 136.602 171.498 140.468 171.498C144.334 171.498 147.468 168.364 147.468 164.498V153.998C147.468 150.132 144.334 146.998 140.468 146.998ZM155.636 145.25C155.636 141.384 158.77 138.25 162.636 138.25C166.502 138.25 169.636 141.384 169.636 145.25V173.25C169.636 177.116 166.502 180.249 162.636 180.249C158.77 180.249 155.636 177.116 155.636 173.25V145.25ZM184.796 146.998C180.93 146.998 177.796 150.132 177.796 153.998V164.498C177.796 168.364 180.93 171.498 184.796 171.498C188.662 171.498 191.796 168.364 191.796 164.498V153.998C191.796 150.132 188.662 146.998 184.796 146.998Z" fill="#E266ED"/>
<path d="M59.125 344.675V369H71.34V365.78H63.115V344.675H59.125ZM93.0518 359.34C93.0518 353.285 88.7118 349.4 83.2168 349.4C77.7218 349.4 73.3818 353.285 73.3818 359.34C73.3818 365.395 77.5468 369.315 83.0418 369.315C88.5718 369.315 93.0518 365.395 93.0518 359.34ZM77.4418 359.34C77.4418 354.965 80.1368 352.865 83.1468 352.865C86.1218 352.865 88.9568 354.965 88.9568 359.34C88.9568 363.715 86.0168 365.85 83.0418 365.85C80.0318 365.85 77.4418 363.715 77.4418 359.34ZM95.6661 359.27C95.6661 365.22 99.6911 369.315 104.696 369.315C107.916 369.315 110.226 367.775 111.451 366.13V369H115.476V349.715H111.451V352.515C110.261 350.94 108.021 349.4 104.766 349.4C99.6911 349.4 95.6661 353.32 95.6661 359.27ZM111.451 359.34C111.451 363.505 108.616 365.85 105.606 365.85C102.631 365.85 99.7611 363.435 99.7611 359.27C99.7611 355.105 102.631 352.865 105.606 352.865C108.616 352.865 111.451 355.21 111.451 359.34ZM119.387 359.27C119.387 365.22 123.412 369.315 128.487 369.315C131.637 369.315 133.947 367.845 135.172 366.095V369H139.197V343.1H135.172V352.41C133.702 350.59 131.042 349.4 128.522 349.4C123.412 349.4 119.387 353.32 119.387 359.27ZM135.172 359.34C135.172 363.505 132.337 365.85 129.327 365.85C126.352 365.85 123.482 363.435 123.482 359.27C123.482 355.105 126.352 352.865 129.327 352.865C132.337 352.865 135.172 355.21 135.172 359.34ZM144.438 369H148.428V349.715H144.438V369ZM146.468 347.16C147.868 347.16 148.988 346.04 148.988 344.605C148.988 343.17 147.868 342.05 146.468 342.05C145.033 342.05 143.913 343.17 143.913 344.605C143.913 346.04 145.033 347.16 146.468 347.16ZM167.351 369H171.306V357.625C171.306 352.235 167.911 349.4 163.396 349.4C161.086 349.4 158.951 350.345 157.656 351.92V349.715H153.666V369H157.656V358.22C157.656 354.685 159.581 352.865 162.521 352.865C165.426 352.865 167.351 354.685 167.351 358.22V369ZM175.066 359.27C175.066 365.22 179.091 369.315 184.166 369.315C187.316 369.315 189.626 367.74 190.851 366.095V369.315C190.851 373.165 188.541 375.055 185.461 375.055C182.696 375.055 180.561 373.69 179.966 371.695H176.011C176.501 375.965 180.316 378.52 185.461 378.52C191.481 378.52 194.876 374.565 194.876 369.315V349.715H190.851V352.515C189.661 350.87 187.316 349.4 184.166 349.4C179.091 349.4 175.066 353.32 175.066 359.27ZM190.851 359.34C190.851 363.505 188.016 365.85 185.006 365.85C182.031 365.85 179.161 363.435 179.161 359.27C179.161 355.105 182.031 352.865 185.006 352.865C188.016 352.865 190.851 355.21 190.851 359.34ZM204.246 366.69C204.246 365.255 203.126 364.135 201.726 364.135C200.291 364.135 199.171 365.255 199.171 366.69C199.171 368.125 200.291 369.245 201.726 369.245C203.126 369.245 204.246 368.125 204.246 366.69ZM212.689 366.69C212.689 365.255 211.569 364.135 210.169 364.135C208.734 364.135 207.614 365.255 207.614 366.69C207.614 368.125 208.734 369.245 210.169 369.245C211.569 369.245 212.689 368.125 212.689 366.69ZM221.131 366.69C221.131 365.255 220.011 364.135 218.611 364.135C217.176 364.135 216.056 365.255 216.056 366.69C216.056 368.125 217.176 369.245 218.611 369.245C220.011 369.245 221.131 368.125 221.131 366.69Z" fill="#E266ED"/>
</svg>
