<svg xmlns="http://www.w3.org/2000/svg" width="60" height="60" viewBox="0 0 60 60">
  <g id="memory-icon" transform="translate(-10 -10.864)">
    <path id="Path_11" data-name="Path 11" d="M23.333,57.531H56.666V24.2H23.333Z" fill="#6759ff" opacity="0.3"/>
    <path id="Path_12" data-name="Path 12" d="M70,37.531V30.864H63.333V24.2a6.686,6.686,0,0,0-6.667-6.667H50V10.864H43.333v6.667H36.667V10.864H30v6.667H23.333A6.686,6.686,0,0,0,16.667,24.2v6.667H10v6.667h6.667V44.2H10v6.667h6.667v6.667A6.686,6.686,0,0,0,23.333,64.2H30v6.667h6.667V64.2h6.667v6.667H50V64.2h6.667a6.686,6.686,0,0,0,6.667-6.667V50.864H70V44.2H63.333V37.531Zm-13.333,20H23.333V24.2H56.667Z" fill="#6759ff"/>
    <path id="Path_13" data-name="Path 13" d="M34.449,43.194H32.227v4.444h2.222Z" fill="#6759ff" opacity="0.3"/>
    <path id="Path_14" data-name="Path 14" d="M47.769,43.194H45.547v4.444h2.222Z" fill="#6759ff" opacity="0.3"/>
    <path id="Path_15" data-name="Path 15" d="M40,29.865a10,10,0,0,0-10,10v7.778a2.229,2.229,0,0,0,2.222,2.222h4.444V40.976H32.222V39.864a7.778,7.778,0,0,1,15.556,0v1.111H43.333v8.889h4.444A2.229,2.229,0,0,0,50,47.642V39.864A10,10,0,0,0,40,29.865ZM34.444,43.2v4.444H32.222V43.2Zm13.333,4.444H45.556V43.2h2.222Z" fill="#6759ff"/>
  </g>
</svg>
