<svg width="21" height="16" viewBox="0 0 21 16" fill="none" xmlns="http://www.w3.org/2000/svg">
<path d="M9.7462 7.00999C9.95855 7.17934 10.0857 7.45553 10.0872 7.75091V8.50398C10.0857 8.79937 9.95855 9.07555 9.7462 9.24491L1.89207 15.5367C1.63161 15.7239 1.29998 15.7239 1.03952 15.5367L0.911639 15.4638C0.678692 15.3029 0.530966 15.0208 0.517334 14.7107V1.53201C0.518196 1.20823 0.667821 0.908641 0.911639 0.742495L1.03952 0.669618C1.29841 0.476338 1.63319 0.476338 1.89207 0.669618L9.7462 7.00999ZM20.4031 7.00999L12.549 0.718203C12.2901 0.524924 11.9553 0.524924 11.6964 0.718203L11.5685 0.791081C11.3247 0.957226 11.1751 1.25682 11.1742 1.58059V14.7107C11.1772 15.0339 11.3262 15.3324 11.5685 15.5002L11.6964 15.5731C11.9569 15.7603 12.2885 15.7603 12.549 15.5731L20.4031 9.28134C20.6154 9.11199 20.7426 8.8358 20.7441 8.54042V7.78735C20.7532 7.47914 20.6249 7.18662 20.4031 7.00999Z" fill="white"/>
</svg>
