<svg width="14" height="19" viewBox="0 0 14 19" fill="none" xmlns="http://www.w3.org/2000/svg">
<path d="M3.95372 1.73388V17.8495C3.94667 18.4818 3.51127 18.9924 2.97206 19.0006H1.00875C0.469549 18.9924 0.034149 18.4818 0.0270996 17.8495V1.73388C0.034149 1.10159 0.469549 0.59103 1.00875 0.582764H2.97206C3.51127 0.59103 3.94667 1.10159 3.95372 1.73388ZM12.1342 0.582764H10.1709C9.63166 0.59103 9.19626 1.10159 9.18921 1.73388V17.8495C9.19626 18.4818 9.63166 18.9924 10.1709 19.0006H12.1342C12.6734 18.9924 13.1088 18.4818 13.1158 17.8495V1.73388C13.1088 1.10159 12.6734 0.59103 12.1342 0.582764Z" fill="#E266ED"/>
</svg>
