<svg width="22" height="18" viewBox="0 0 22 18" fill="none" xmlns="http://www.w3.org/2000/svg">
<path d="M1.25 6.83341H20.75H1.25ZM5.58333 12.2501H6.66667H5.58333ZM11 12.2501H12.0833H11ZM4.5 16.5834H17.5C18.362 16.5834 19.1886 16.241 19.7981 15.6315C20.4076 15.022 20.75 14.1954 20.75 13.3334V4.66675C20.75 3.80479 20.4076 2.97814 19.7981 2.36865C19.1886 1.75916 18.362 1.41675 17.5 1.41675H4.5C3.63805 1.41675 2.8114 1.75916 2.2019 2.36865C1.59241 2.97814 1.25 3.80479 1.25 4.66675V13.3334C1.25 14.1954 1.59241 15.022 2.2019 15.6315C2.8114 16.241 3.63805 16.5834 4.5 16.5834Z" stroke="#B3BAC5" stroke-width="2" stroke-linecap="round" stroke-linejoin="round"/>
</svg>
