<svg width="20" height="16" viewBox="0 0 20 16" fill="none" xmlns="http://www.w3.org/2000/svg">
<path d="M10.9668 9.23275C10.7602 9.0634 10.6365 8.78722 10.635 8.49183V7.73876C10.6365 7.44338 10.7602 7.16719 10.9668 6.99784L18.6088 0.718203C18.8607 0.524924 19.1864 0.524924 19.4383 0.718203L19.5628 0.791081C19.7985 0.958936 19.9436 1.25745 19.9464 1.58059V14.7107C19.9456 15.0345 19.8 15.3341 19.5628 15.5002L19.4383 15.5731C19.1864 15.7664 18.8607 15.7664 18.6088 15.5731L10.9668 9.23275ZM0.59768 9.23275L8.2397 15.5245C8.4916 15.7178 8.81734 15.7178 9.06923 15.5245L9.19366 15.4517C9.4309 15.2855 9.57648 14.9859 9.57732 14.6621V1.532C9.57446 1.20887 9.4294 0.910351 9.19366 0.742495L9.06923 0.669618C8.81734 0.476338 8.4916 0.476338 8.2397 0.669618L0.59768 6.99784C0.391069 7.16719 0.267383 7.44338 0.265869 7.73876V8.49183C0.267383 8.78722 0.391069 9.0634 0.59768 9.23275Z" fill="white"/>
</svg>
