<svg width="21" height="14" viewBox="0 0 21 14" fill="none" xmlns="http://www.w3.org/2000/svg">
<path fill-rule="evenodd" clip-rule="evenodd" d="M0.00807482 2.7813C0.124391 1.22671 1.48284 0 3.14154 0H17.2785C18.9372 0 20.2956 1.22671 20.4119 2.7813H0.00807482ZM0 5.54532H20.42V10.8222C20.42 12.4779 19.0135 13.8202 17.2785 13.8202H3.14154C1.40651 13.8202 0 12.4779 0 10.8222V5.54532ZM3.33094 7.94659C2.73105 7.94659 2.24476 8.41067 2.24476 8.98312V10.5379C2.24476 11.1103 2.73105 11.5744 3.33094 11.5744C3.93079 11.5744 4.4171 11.1103 4.4171 10.5379V8.98312C4.4171 8.41067 3.93079 7.94659 3.33094 7.94659ZM5.6843 7.68745C5.6843 7.115 6.17058 6.65095 6.77046 6.65095C7.37033 6.65095 7.85664 7.115 7.85664 7.68745V11.8335C7.85664 12.406 7.37033 12.87 6.77046 12.87C6.17058 12.87 5.6843 12.406 5.6843 11.8335V7.68745ZM10.21 7.94659C9.61012 7.94659 9.12384 8.41067 9.12384 8.98312V10.5379C9.12384 11.1103 9.61012 11.5744 10.21 11.5744C10.8099 11.5744 11.2962 11.1103 11.2962 10.5379V8.98312C11.2962 8.41067 10.8099 7.94659 10.21 7.94659ZM12.5634 7.68745C12.5634 7.115 13.0497 6.65095 13.6495 6.65095C14.2494 6.65095 14.7357 7.115 14.7357 7.68745V11.8335C14.7357 12.406 14.2494 12.87 13.6495 12.87C13.0497 12.87 12.5634 12.406 12.5634 11.8335V7.68745ZM17.0891 7.94659C16.4892 7.94659 16.0029 8.41067 16.0029 8.98312V10.5379C16.0029 11.1103 16.4892 11.5744 17.0891 11.5744C17.6889 11.5744 18.1752 11.1103 18.1752 10.5379V8.98312C18.1752 8.41067 17.6889 7.94659 17.0891 7.94659Z" fill="white"/>
</svg>
