<svg width="80" height="81" viewBox="0 0 80 81" fill="none" xmlns="http://www.w3.org/2000/svg">
<path opacity="0.3" d="M60 67.531H20V27.531H26.6667V34.1977C26.6667 36.031 28.1667 37.531 30 37.531C31.8333 37.531 33.3333 36.031 33.3333 34.1977V27.531H46.6667V34.1977C46.6667 36.031 48.1667 37.531 50 37.531C51.8333 37.531 53.3333 36.031 53.3333 34.1977V27.531H60V67.531Z" fill="url(#paint0_linear_4:3398)"/>
<path d="M60.0002 20.8643H53.3335C53.3335 13.4977 47.3668 7.53101 40.0002 7.53101C32.6335 7.53101 26.6668 13.4977 26.6668 20.8643H20.0002C16.3335 20.8643 13.3335 23.8643 13.3335 27.531V67.531C13.3335 71.1977 16.3335 74.1977 20.0002 74.1977H60.0002C63.6668 74.1977 66.6668 71.1977 66.6668 67.531V27.531C66.6668 23.8643 63.6668 20.8643 60.0002 20.8643ZM40.0002 14.1977C43.6668 14.1977 46.6668 17.1977 46.6668 20.8643H33.3335C33.3335 17.1977 36.3335 14.1977 40.0002 14.1977ZM60.0002 67.531H20.0002V27.531H26.6668V34.1977C26.6668 36.031 28.1668 37.531 30.0002 37.531C31.8335 37.531 33.3335 36.031 33.3335 34.1977V27.531H46.6668V34.1977C46.6668 36.031 48.1668 37.531 50.0002 37.531C51.8335 37.531 53.3335 36.031 53.3335 34.1977V27.531H60.0002V67.531Z" fill="url(#paint1_linear_4:3398)"/>
<defs>
<linearGradient id="paint0_linear_4:3398" x1="20" y1="27.531" x2="71.2616" y2="47.1285" gradientUnits="userSpaceOnUse">
<stop stop-color="#6759FF"/>
<stop offset="1" stop-color="#2E2E99"/>
</linearGradient>
<linearGradient id="paint1_linear_4:3398" x1="13.3335" y1="7.53101" x2="84.9709" y2="29.4408" gradientUnits="userSpaceOnUse">
<stop stop-color="#6759FF"/>
<stop offset="1" stop-color="#2E2E99"/>
</linearGradient>
</defs>
</svg>
