<svg xmlns="http://www.w3.org/2000/svg" width="53.333" height="66.667" viewBox="0 0 53.333 66.667">
  <g id="product-icon" transform="translate(-13.333 -7.531)">
    <path id="Path_16" data-name="Path 16" d="M60,67.531H20v-40h6.667V34.2a3.333,3.333,0,0,0,6.667,0V27.531H46.667V34.2a3.333,3.333,0,0,0,6.667,0V27.531H60Z" fill="#6759ff" opacity="0.3"/>
    <path id="Path_17" data-name="Path 17" d="M60,20.864H53.333a13.333,13.333,0,0,0-26.667,0H20a6.686,6.686,0,0,0-6.667,6.667v40A6.686,6.686,0,0,0,20,74.2H60a6.686,6.686,0,0,0,6.667-6.667v-40A6.686,6.686,0,0,0,60,20.864ZM40,14.2a6.686,6.686,0,0,1,6.667,6.667H33.333A6.686,6.686,0,0,1,40,14.2ZM60,67.531H20v-40h6.667V34.2a3.333,3.333,0,0,0,6.667,0V27.531H46.667V34.2a3.333,3.333,0,0,0,6.667,0V27.531H60Z" fill="#6759ff"/>
  </g>
</svg>
