<svg width="22" height="18" viewBox="0 0 22 18" fill="none" xmlns="http://www.w3.org/2000/svg">
<path fill-rule="evenodd" clip-rule="evenodd" d="M2.12356 1.72373C3.09871 0.748879 4.42111 0.201239 5.79996 0.201239C7.17882 0.201239 8.50122 0.748879 9.47636 1.72373L11 3.24603L12.5236 1.72373C13.0032 1.22708 13.577 0.830928 14.2115 0.558402C14.8459 0.285875 15.5282 0.142427 16.2187 0.136427C16.9091 0.130427 17.5939 0.261996 18.2329 0.523457C18.872 0.784917 19.4526 1.17103 19.9408 1.65927C20.4291 2.14752 20.8152 2.72811 21.0766 3.36717C21.3381 4.00623 21.4697 4.69096 21.4637 5.38142C21.4577 6.07187 21.3142 6.75421 21.0417 7.38863C20.7692 8.02305 20.373 8.59685 19.8764 9.07653L11 17.9542L2.12356 9.07653C1.14871 8.10139 0.601074 6.77898 0.601074 5.40013C0.601074 4.02128 1.14871 2.69887 2.12356 1.72373Z" fill="#FF0000"/>
</svg>
