<svg width="180" height="182" viewBox="0 0 180 182" fill="none" xmlns="http://www.w3.org/2000/svg">
<g opacity="0.6">
<path fill-rule="evenodd" clip-rule="evenodd" d="M125.173 53.8002C125.382 53.4406 125.898 53.4406 126.107 53.8002L126.879 55.1346C126.905 55.1785 126.948 55.2096 126.997 55.2204L128.498 55.5472C128.902 55.6353 129.062 56.1293 128.786 56.4397L127.763 57.5912C127.729 57.629 127.713 57.6794 127.718 57.73L127.873 59.2663C127.914 59.6804 127.497 59.9857 127.118 59.8179L125.713 59.1952C125.666 59.1747 125.614 59.1747 125.567 59.1952L124.162 59.8179C123.783 59.9857 123.365 59.6804 123.407 59.2663L123.562 57.73C123.567 57.6794 123.551 57.629 123.517 57.5912L122.494 56.4397C122.218 56.1293 122.378 55.6353 122.782 55.5472L124.283 55.2204C124.332 55.2096 124.375 55.1785 124.4 55.1346L125.173 53.8002ZM125.795 53.9824C125.726 53.8625 125.554 53.8625 125.484 53.9824L124.712 55.3168C124.635 55.4485 124.507 55.5419 124.359 55.5742L122.858 55.901C122.723 55.9303 122.67 56.095 122.762 56.1985L123.785 57.35C123.886 57.4636 123.935 57.6148 123.92 57.7665L123.765 59.3028C123.751 59.4408 123.891 59.5426 124.017 59.4866L125.422 58.864C125.561 58.8025 125.719 58.8025 125.858 58.864L127.263 59.4866C127.389 59.5426 127.529 59.4408 127.515 59.3028L127.36 57.7665C127.345 57.6148 127.393 57.4636 127.495 57.35L128.518 56.1985C128.61 56.095 128.556 55.9303 128.422 55.901L126.921 55.5742C126.773 55.5419 126.645 55.4485 126.568 55.3168L125.795 53.9824Z" fill="#6759FF"/>
<path opacity="0.796364" fill-rule="evenodd" clip-rule="evenodd" d="M43.0302 24.3992C43.1473 24.7984 42.7926 25.1761 42.3896 25.0816L39.0926 24.3081C39.0434 24.2966 38.9916 24.3063 38.9499 24.3351L36.1575 26.2599C35.8161 26.4952 35.3492 26.2728 35.3141 25.8581L35.0268 22.4661C35.0226 22.4154 34.9973 22.3689 34.9572 22.3379L32.2738 20.2622C31.9458 20.0085 32.0119 19.4932 32.3932 19.3315L35.5127 18.0086C35.5592 17.9888 35.5954 17.9503 35.6123 17.9024L36.7463 14.6947C36.8849 14.3026 37.3927 14.2066 37.6635 14.5213L39.8787 17.0958C39.9118 17.1342 39.9594 17.1569 40.0099 17.1583L43.3942 17.2515C43.8079 17.2629 44.0556 17.7188 43.8416 18.075L42.0912 20.9891C42.0651 21.0326 42.0583 21.0851 42.0726 21.1339L43.0302 24.3992ZM42.4714 24.729C42.6057 24.7606 42.724 24.6346 42.6849 24.5016L41.7273 21.2363C41.6845 21.09 41.7047 20.9324 41.7831 20.8019L43.5334 17.8879C43.6048 17.7691 43.5222 17.6172 43.3843 17.6134L40 17.5201C39.8485 17.516 39.7056 17.4479 39.6064 17.3326L37.3912 14.7582C37.301 14.6533 37.1317 14.6853 37.0855 14.816L35.9515 18.0237C35.9008 18.1673 35.7923 18.2829 35.6526 18.3421L32.5331 19.6651C32.406 19.719 32.384 19.8907 32.4933 19.9753L35.1767 22.051C35.2969 22.144 35.3727 22.2834 35.3855 22.4353L35.6728 25.8274C35.6845 25.9656 35.8402 26.0398 35.9539 25.9613L38.7464 24.0365C38.8714 23.9503 39.0268 23.9209 39.1744 23.9556L42.4714 24.729Z" fill="#6759FF"/>
<path opacity="0.73011" fill-rule="evenodd" clip-rule="evenodd" d="M33.5285 140.065C33.9305 140.164 34.0771 140.662 33.7932 140.965L32.1233 142.747C32.0887 142.784 32.0711 142.834 32.0748 142.885L32.2557 145.326C32.2864 145.741 31.8606 146.035 31.4864 145.857L29.2852 144.811C29.2395 144.789 29.1869 144.788 29.1401 144.807L26.8868 145.734C26.5038 145.892 26.094 145.576 26.1466 145.163L26.4561 142.734C26.4625 142.684 26.4476 142.633 26.4149 142.595L24.8414 140.726C24.574 140.409 24.7466 139.919 25.1533 139.842L27.5457 139.387C27.5954 139.378 27.6388 139.348 27.6654 139.305L28.9462 137.222C29.1639 136.869 29.6804 136.882 29.8791 137.247L31.0483 139.395C31.0725 139.44 31.1143 139.472 31.1634 139.484L33.5285 140.065ZM33.5312 140.717C33.6258 140.616 33.577 140.45 33.443 140.417L31.0779 139.835C30.9306 139.799 30.8053 139.702 30.7325 139.569L29.5634 137.421C29.4971 137.3 29.325 137.295 29.2524 137.413L27.9716 139.495C27.8918 139.625 27.7615 139.715 27.6125 139.743L25.2201 140.197C25.0845 140.223 25.027 140.386 25.1162 140.492L26.6896 142.361C26.7876 142.477 26.8325 142.629 26.8132 142.78L26.5037 145.209C26.4862 145.347 26.6228 145.452 26.7504 145.399L29.0037 144.472C29.144 144.414 29.302 144.418 29.4391 144.484L31.6403 145.53C31.765 145.589 31.9069 145.491 31.8967 145.353L31.7158 142.911C31.7046 142.759 31.7574 142.61 31.8613 142.499L33.5312 140.717Z" fill="#6759FF"/>
<path opacity="0.902331" d="M159.019 96.5067C159.201 96.7152 159.091 97.0436 158.821 97.0999L155.506 97.791C155.407 97.8117 155.321 97.8732 155.27 97.9605L153.54 100.887C153.399 101.126 153.055 101.122 152.918 100.882L151.24 97.9248C151.19 97.8365 151.105 97.7735 151.007 97.7511L147.704 97.0012C147.435 96.9401 147.332 96.6098 147.517 96.4046L149.795 93.8861C149.863 93.8109 149.897 93.7104 149.887 93.6092L149.576 90.2193C149.551 89.943 149.831 89.7419 150.083 89.856L153.168 91.2563C153.261 91.2981 153.366 91.299 153.459 91.2589L156.569 89.9136C156.822 89.804 157.099 90.01 157.069 90.2858L156.698 93.6697C156.687 93.7707 156.719 93.8717 156.785 93.9481L159.019 96.5067Z" fill="#6759FF"/>
<path opacity="0.370759" d="M18.4538 65.7659C18.537 65.5013 18.873 65.4253 19.0608 65.6286L20.4322 67.1128C20.501 67.1872 20.5977 67.2292 20.6988 67.2284L22.7135 67.2122C22.9894 67.2099 23.1651 67.5078 23.0309 67.7502L22.0509 69.5204C22.0018 69.6092 21.992 69.7147 22.024 69.8111L22.6619 71.7328C22.7492 71.9959 22.5218 72.256 22.2511 72.2026L20.274 71.8124C20.1749 71.7928 20.0721 71.8161 19.9908 71.8765L18.3703 73.0804C18.1484 73.2453 17.8321 73.1081 17.799 72.8327L17.5571 70.8214C17.545 70.7205 17.4912 70.6294 17.409 70.5703L15.7696 69.3926C15.5451 69.2314 15.577 68.8865 15.8273 68.7697L17.6549 67.9169C17.7465 67.8741 17.8161 67.7945 17.8466 67.6976L18.4538 65.7659Z" fill="#6759FF"/>
<path opacity="0.806242" d="M39.5515 103.859C39.4126 104.099 39.0682 104.099 38.9293 103.859L37.2253 100.918C37.1744 100.83 37.0892 100.768 36.9904 100.746L33.6815 100.026C33.4118 99.967 33.3054 99.6377 33.4892 99.4308L35.7449 96.8921C35.8122 96.8163 35.8448 96.7156 35.8346 96.6144L35.4935 93.2274C35.4657 92.9514 35.7443 92.7478 35.9968 92.8597L39.0949 94.2324C39.1874 94.2734 39.2928 94.2734 39.3853 94.2324L42.4833 92.8595C42.7358 92.7476 43.0144 92.9512 42.9866 93.2272L42.6457 96.6142C42.6355 96.7153 42.6681 96.8161 42.7354 96.8919L44.9913 99.4304C45.1751 99.6373 45.0687 99.9667 44.799 100.025L41.4902 100.746C41.3914 100.768 41.3062 100.83 41.2553 100.918L39.5515 103.859Z" fill="#6759FF"/>
<path opacity="0.547916" d="M103.537 24.3629C103.264 24.3969 103.055 24.1213 103.161 23.865L104.457 20.7201C104.496 20.6262 104.493 20.5203 104.451 20.4282L103.017 17.3441C102.9 17.0927 103.096 16.8081 103.371 16.8299L106.747 17.0978C106.847 17.1058 106.947 17.0708 107.021 17.0014L109.495 14.6775C109.696 14.4881 110.026 14.5878 110.09 14.8576L110.88 18.1681C110.904 18.2669 110.967 18.3512 111.056 18.4004L114.018 20.0483C114.26 20.1826 114.267 20.5288 114.032 20.6737L111.145 22.4519C111.059 22.5049 110.999 22.592 110.98 22.6918L110.337 26.0342C110.284 26.3066 109.959 26.4208 109.749 26.2406L107.175 24.0291C107.099 23.9631 106.998 23.9326 106.897 23.945L103.537 24.3629Z" fill="#6759FF"/>
<path opacity="0.392959" d="M105.768 167.343C105.649 167.593 105.305 167.62 105.148 167.392L103.217 164.596C103.159 164.513 103.069 164.458 102.969 164.444L99.6135 163.991C99.3401 163.954 99.2079 163.634 99.3748 163.413L101.422 160.702C101.484 160.621 101.508 160.518 101.49 160.418L100.882 157.069C100.832 156.796 101.094 156.571 101.355 156.662L104.551 157.782C104.647 157.816 104.752 157.808 104.841 157.759L107.821 156.143C108.063 156.011 108.357 156.192 108.351 156.469L108.279 159.873C108.277 159.974 108.318 160.072 108.391 160.142L110.84 162.492C111.04 162.684 110.96 163.021 110.696 163.101L107.454 164.084C107.358 164.113 107.278 164.182 107.234 164.274L105.768 167.343Z" fill="#6759FF"/>
</g>
<g clip-path="url(#clip0_4:3476)">
<path fill-rule="evenodd" clip-rule="evenodd" d="M105.484 88.7891C108.912 85.3603 108.912 79.8009 105.484 76.372C102.055 72.9431 96.4952 72.9431 93.0664 76.372C85.1577 84.9349 96.9254 96.6963 105.484 88.7891Z" fill="#B8B2FF"/>
<path fill-rule="evenodd" clip-rule="evenodd" d="M75.1313 111.508L70.3473 106.724C66.2813 107.54 62.4402 109.497 59.3298 112.608C54.9122 117.025 52.8209 122.917 53.0217 128.834C63.3292 129.41 73.2744 121.785 75.1313 111.508Z" fill="#B8B2FF"/>
<path d="M127.066 55.8245C126.93 55.3195 126.536 54.9252 126.031 54.7898C109.442 49.811 89.1547 65.7813 78.1362 82.0503C70.6323 81.1028 62.8523 83.7683 57.5227 89.1517C55.9861 90.6885 54.6559 92.4219 53.5693 94.304C53.3468 94.6894 53.3118 95.155 53.4741 95.5692C53.6364 95.9835 53.9783 96.3013 54.4034 96.4332L68.1661 100.699C67.7478 101.87 67.381 103.023 67.0696 104.15C66.9294 104.658 67.0728 105.202 67.4453 105.574L76.2813 114.41C76.6541 114.784 77.2035 114.926 77.7054 114.786C78.8332 114.475 79.9858 114.108 81.1569 113.69L85.4226 127.452C85.5543 127.877 85.8722 128.219 86.2866 128.382C86.6997 128.544 87.166 128.509 87.5518 128.286C89.4339 127.2 91.1673 125.87 92.7041 124.333C95.5264 121.511 97.5738 118.166 98.7897 114.392C99.891 110.973 100.24 107.295 99.8053 103.72C116.078 92.7024 132.046 72.3991 127.066 55.8245ZM57.096 94.204C57.8374 93.1387 58.6726 92.1401 59.5918 91.2209C63.9879 86.8248 70.0896 84.5124 76.2552 84.8241C73.4062 89.1896 71.0013 93.665 69.2221 97.9623L57.096 94.204ZM70.1241 104.115C70.6522 102.346 71.332 100.487 72.148 98.5716L83.2839 109.708C81.3687 110.524 79.5099 111.203 77.7405 111.731L70.1241 104.115ZM90.6346 122.264C89.7155 123.183 88.7168 124.018 87.6515 124.759L83.893 112.633C88.1917 110.853 92.6684 108.448 97.0352 105.598C97.3728 111.818 95.0972 117.801 90.6346 122.264ZM86.1296 108.415L73.441 95.7259C79.6754 82.7879 91.5078 68.0945 104.534 61.053C105.44 65.0228 107.425 68.6164 110.332 71.5234C113.239 74.4306 116.832 76.4154 120.802 77.3211C113.761 90.3477 99.0674 102.18 86.1296 108.415ZM122.146 74.6128C114.55 73.1739 108.682 67.3052 107.243 59.7095C112.929 57.1441 118.781 56.1257 124.444 57.4114C125.73 63.0749 124.711 68.9269 122.146 74.6128Z" fill="#555367"/>
</g>
<defs>
<clipPath id="clip0_4:3476">
<rect width="75" height="75" fill="white" transform="translate(53 53.8643)"/>
</clipPath>
</defs>
</svg>
