<svg width="23" height="24" viewBox="0 0 23 24" fill="none" xmlns="http://www.w3.org/2000/svg">
<path d="M21.3843 22.125L14.6343 15.375L21.3843 22.125ZM16.8843 9.75C16.8843 10.7842 16.6806 11.8082 16.2848 12.7636C15.8891 13.7191 15.309 14.5872 14.5777 15.3185C13.8465 16.0497 12.9783 16.6298 12.0229 17.0256C11.0675 17.4213 10.0434 17.625 9.00928 17.625C7.97512 17.625 6.95108 17.4213 5.99565 17.0256C5.04021 16.6298 4.17207 16.0497 3.44081 15.3185C2.70955 14.5872 2.12948 13.7191 1.73373 12.7636C1.33797 11.8082 1.13428 10.7842 1.13428 9.75C1.13428 7.66142 1.96396 5.65838 3.44081 4.18153C4.91766 2.70469 6.9207 1.875 9.00928 1.875C11.0979 1.875 13.1009 2.70469 14.5777 4.18153C16.0546 5.65838 16.8843 7.66142 16.8843 9.75Z" stroke="#97A0AF" stroke-width="2" stroke-linecap="round" stroke-linejoin="round"/>
</svg>
