<svg width="20" height="6" viewBox="0 0 20 6" fill="none" xmlns="http://www.w3.org/2000/svg">
<path d="M2.41658 3.00008H2.42742H2.41658ZM9.99992 3.00008H10.0107H9.99992ZM17.5832 3.00008H17.5941H17.5832ZM3.49992 3.00008C3.49992 3.2874 3.38578 3.56295 3.18262 3.76611C2.97945 3.96928 2.7039 4.08341 2.41658 4.08341C2.12927 4.08341 1.85372 3.96928 1.65055 3.76611C1.44739 3.56295 1.33325 3.2874 1.33325 3.00008C1.33325 2.71276 1.44739 2.43721 1.65055 2.23405C1.85372 2.03088 2.12927 1.91675 2.41658 1.91675C2.7039 1.91675 2.97945 2.03088 3.18262 2.23405C3.38578 2.43721 3.49992 2.71276 3.49992 3.00008V3.00008ZM11.0832 3.00008C11.0832 3.2874 10.9691 3.56295 10.7659 3.76611C10.5628 3.96928 10.2872 4.08341 9.99992 4.08341C9.7126 4.08341 9.43705 3.96928 9.23388 3.76611C9.03072 3.56295 8.91658 3.2874 8.91658 3.00008C8.91658 2.71276 9.03072 2.43721 9.23388 2.23405C9.43705 2.03088 9.7126 1.91675 9.99992 1.91675C10.2872 1.91675 10.5628 2.03088 10.7659 2.23405C10.9691 2.43721 11.0832 2.71276 11.0832 3.00008V3.00008ZM18.6666 3.00008C18.6666 3.2874 18.5524 3.56295 18.3493 3.76611C18.1461 3.96928 17.8706 4.08341 17.5832 4.08341C17.2959 4.08341 17.0204 3.96928 16.8172 3.76611C16.614 3.56295 16.4999 3.2874 16.4999 3.00008C16.4999 2.71276 16.614 2.43721 16.8172 2.23405C17.0204 2.03088 17.2959 1.91675 17.5832 1.91675C17.8706 1.91675 18.1461 2.03088 18.3493 2.23405C18.5524 2.43721 18.6666 2.71276 18.6666 3.00008V3.00008Z" stroke="#B3BAC5" stroke-width="2" stroke-linecap="round" stroke-linejoin="round"/>
</svg>
