<svg width="22" height="20" viewBox="0 0 22 20" fill="none" xmlns="http://www.w3.org/2000/svg">
<path d="M2.67788 2.84462C2.22518 3.29731 1.86609 3.83473 1.62109 4.42619C1.3761 5.01766 1.25 5.65159 1.25 6.29179C1.25 6.93199 1.3761 7.56592 1.62109 8.15739C1.86609 8.74885 2.22518 9.28627 2.67788 9.73896L11 18.0611L19.3222 9.73896C20.2365 8.82471 20.7501 7.58473 20.7501 6.29179C20.7501 4.99885 20.2365 3.75887 19.3222 2.84462C18.408 1.93038 17.168 1.41676 15.875 1.41676C14.5821 1.41676 13.3421 1.93038 12.4279 2.84462L11 4.27246L9.57221 2.84462C9.11952 2.39193 8.5821 2.03284 7.99064 1.78784C7.39917 1.54285 6.76524 1.41675 6.12504 1.41675C5.48484 1.41675 4.85091 1.54285 4.25945 1.78784C3.66798 2.03284 3.13056 2.39193 2.67788 2.84462V2.84462Z" stroke="#B3BAC5" stroke-width="2" stroke-linecap="round" stroke-linejoin="round"/>
</svg>
