<svg width="29" height="19" viewBox="0 0 29 19" fill="none" xmlns="http://www.w3.org/2000/svg">
<path d="M15.7594 11.1405C15.4721 10.9388 15.3001 10.6097 15.298 10.2578V9.36071C15.3001 9.00882 15.4721 8.6798 15.7594 8.47806L26.3852 0.99717C26.7355 0.766918 27.1884 0.766918 27.5387 0.99717L27.7117 1.08399C28.0394 1.28395 28.2411 1.63957 28.2451 2.02453V17.6664C28.244 18.0521 28.0415 18.409 27.7117 18.6069L27.5387 18.6937C27.1884 18.924 26.7355 18.924 26.3852 18.6937L15.7594 11.1405ZM1.34174 11.1405L11.9676 18.6359C12.3178 18.8661 12.7707 18.8661 13.121 18.6359L13.294 18.549C13.6238 18.3511 13.8263 17.9942 13.8274 17.6085V1.96665C13.8235 1.58169 13.6218 1.22607 13.294 1.02611L13.121 0.939291C12.7707 0.709038 12.3178 0.709038 11.9676 0.939291L1.34174 8.47806C1.05446 8.6798 0.882475 9.00882 0.880371 9.36071V10.2578C0.882475 10.6097 1.05446 10.9388 1.34174 11.1405Z" fill="white"/>
</svg>
