<svg width="28" height="20" viewBox="0 0 28 20" fill="none" xmlns="http://www.w3.org/2000/svg">
<path d="M12.531 8.79412C12.8136 8.9984 12.9827 9.33155 12.9848 9.68786V10.5963C12.9827 10.9526 12.8136 11.2857 12.531 11.49L2.07938 19.0795C1.73279 19.3052 1.29148 19.3052 0.944883 19.0795L0.774707 18.9916C0.464722 18.7975 0.26814 18.4572 0.25 18.0832V2.1863C0.251147 1.79575 0.450255 1.43437 0.774707 1.23396L0.944883 1.14605C1.28939 0.912906 1.73488 0.912906 2.07938 1.14605L12.531 8.79412ZM26.7123 8.79412L16.2607 1.20465C15.9162 0.971511 15.4707 0.971511 15.1262 1.20465L14.956 1.29256C14.6315 1.49298 14.4324 1.85436 14.4313 2.24491V18.0832C14.4352 18.4729 14.6336 18.833 14.956 19.0355L15.1262 19.1234C15.4728 19.3492 15.9141 19.3492 16.2607 19.1234L26.7123 11.5339C26.9948 11.3297 27.164 10.9965 27.1661 10.6402V9.73182C27.1782 9.36004 27.0074 9.00718 26.7123 8.79412Z" fill="white"/>
</svg>
