<svg width="67" height="68" viewBox="0 0 67 68" fill="none" xmlns="http://www.w3.org/2000/svg">
<ellipse cx="33.415" cy="33.8237" rx="33.3315" ry="33.4873" fill="white"/>
<path d="M29.1968 23.7079V42.6995C29.1871 43.4446 28.5883 44.0463 27.8466 44.056H25.1461C24.4045 44.0463 23.8056 43.4446 23.7959 42.6995V23.7079C23.8056 22.9627 24.4045 22.3611 25.1461 22.3513H27.8466C28.5883 22.3611 29.1871 22.9627 29.1968 23.7079ZM40.4488 22.3513H37.7483C37.0067 22.3611 36.4078 22.9627 36.3981 23.7079V42.6995C36.4078 43.4446 37.0067 44.0463 37.7483 44.056H40.4488C41.1905 44.0463 41.7893 43.4446 41.799 42.6995V23.7079C41.7893 22.9627 41.1905 22.3611 40.4488 22.3513Z" fill="#E266ED"/>
</svg>
