<svg width="21" height="21" viewBox="0 0 21 21" fill="none" xmlns="http://www.w3.org/2000/svg">
<path d="M17.5 4.9559L16.51 3.7988C15.6706 2.91304 14.6606 2.20814 13.5414 1.72698C12.4222 1.24583 11.2173 0.998484 10 1.00001C5.03125 1.00001 1 5.05009 1 10.0421C1 15.034 5.03125 19.0841 10 19.0841C11.8614 19.084 13.677 18.5043 15.197 17.4248C16.717 16.3453 17.8666 14.819 18.4876 13.0561" stroke="white" stroke-width="2" stroke-miterlimit="10" stroke-linecap="round"/>
<path d="M20.4997 2.57384V7.7815C20.4997 7.98134 20.4207 8.17299 20.28 8.3143C20.1394 8.45561 19.9486 8.535 19.7497 8.535H14.5662C13.8978 8.535 13.5631 7.72357 14.0356 7.24886L19.2195 2.04073C19.692 1.56508 20.4997 1.90228 20.4997 2.57384Z" fill="white"/>
</svg>
