<svg width="22" height="23" viewBox="0 0 22 23" fill="none" xmlns="http://www.w3.org/2000/svg">
<path d="M19.7668 4.79175L18.5647 5.80996C19.7997 7.27962 20.458 9.1517 20.416 11.0746C20.374 12.9974 19.6347 14.8387 18.3369 16.2526L19.4918 17.3576C21.0503 15.661 21.9383 13.4509 21.9889 11.1427C22.0395 8.83458 21.2493 6.58731 19.7668 4.82332V4.79175Z" fill="white"/>
<path d="M15.3826 7.88565C16.1234 8.76812 16.5178 9.89202 16.4917 11.0461C16.4657 12.2002 16.021 13.305 15.2412 14.1528L16.3961 15.2263C17.4354 14.0947 18.0274 12.6206 18.0607 11.0812C18.0939 9.54183 17.5662 8.04329 16.5768 6.86743L15.3826 7.88565Z" fill="white"/>
<path d="M12.5703 22.0936C12.4664 22.0931 12.3635 22.072 12.2678 22.0313C12.172 21.9907 12.0853 21.9313 12.0125 21.8568L6.02589 15.779H0.785644C0.577278 15.779 0.377447 15.6959 0.23011 15.5478C0.0827729 15.3998 0 15.1991 0 14.9897V7.09657C0 6.88723 0.0827729 6.68646 0.23011 6.53844C0.377447 6.39041 0.577278 6.30725 0.785644 6.30725H6.02589L12.0125 0.229527C12.1597 0.0825164 12.3588 0 12.5664 0C12.7739 0 12.9731 0.0825164 13.1203 0.229527C13.2683 0.375259 13.353 0.573851 13.3559 0.782048V21.3042C13.3559 21.5136 13.2732 21.7143 13.1258 21.8624C12.9785 22.0104 12.7787 22.0936 12.5703 22.0936Z" fill="white"/>
</svg>
