<svg width="101" height="33" viewBox="0 0 101 33" fill="none" xmlns="http://www.w3.org/2000/svg">
<rect x="0.611694" y="0.5" width="100" height="32" rx="16" fill="#EC9DF4"/>
<rect x="12.6117" y="14.5" width="52" height="4" rx="2" fill="white"/>
<path d="M78.9189 11.1798V22.0817C78.9189 22.7774 78.077 23.1201 77.5894 22.6325L74.7023 19.746H71.3905C70.9604 19.746 70.6117 19.3973 70.6117 18.9672V14.2944C70.6117 13.8643 70.9604 13.5156 71.3905 13.5156H74.7023L77.5894 10.629C78.0765 10.142 78.9189 10.4833 78.9189 11.1798ZM84.8266 8.65268C84.3374 8.35346 83.6982 8.50754 83.3989 8.99678C83.0997 9.48603 83.2538 10.1252 83.743 10.4244C85.8296 11.7004 87.226 14.0018 87.226 16.6308C87.226 19.0136 86.0553 21.2481 84.0944 22.6082C83.6232 22.9351 83.5061 23.5821 83.8329 24.0533C84.1599 24.5247 84.807 24.6415 85.278 24.3148C87.7982 22.5667 89.3028 19.6942 89.3028 16.6308C89.3028 13.2805 87.5317 10.307 84.8266 8.65268ZM86.1876 16.6308C86.1876 14.4064 85.0146 12.4195 83.2036 11.3122C82.7144 11.013 82.0752 11.1671 81.776 11.6564C81.4769 12.1457 81.631 12.7848 82.1202 13.084C83.3667 13.8462 84.1108 15.1721 84.1108 16.6308C84.1108 17.9925 83.4417 19.2696 82.321 20.047C81.8498 20.3738 81.7327 21.0208 82.0596 21.492C82.2613 21.7828 82.5848 21.9387 82.9137 21.9387C83.125 21.9388 83.3312 21.8741 83.5046 21.7535C85.1846 20.5881 86.1876 18.6731 86.1876 16.6308ZM83.0725 16.6308C83.0725 15.5367 82.5148 14.5426 81.5807 13.9717C81.0914 13.6727 80.4522 13.8269 80.1531 14.3162C79.854 14.8055 80.0083 15.4446 80.4976 15.7437C80.8095 15.9343 80.9957 16.2659 80.9957 16.6308C80.9956 16.7988 80.9548 16.9643 80.8768 17.1131C80.7988 17.2619 80.6859 17.3896 80.5478 17.4853C80.0765 17.812 79.9593 18.4589 80.286 18.9302C80.6128 19.4016 81.2598 19.5188 81.731 19.192C82.571 18.6097 83.0725 17.6522 83.0725 16.6308Z" fill="#FFFBFB"/>
</svg>
